PathFileType	4	(X/Y/Z)	Patient4_TMGait_0pt4_01_left_21.trc.trc
DataRate	CameraRate	NumFrames	NumMarkers	Units	OrigDataRate	OrigDataStartFrame	OrigNumFrames
80.459770114943	80.459770114943	5	33	mm	80.459770114943	71	       141
Frame#	Time	Sacral			L.Shoulder			Chest			R.Shoulder			Neck			R.ASIS			L.ASIS			R.Thigh.Superior			R.Thigh.Lateral			R.Thigh.Inferior			R.Patella			L.Thigh.Superior			L.Thigh.Lateral			L.Thigh.Inferior			L.Patella			L.Shank.Superior			L.Shank.Lateral			L.Shank.Inferior			R.Shank.Superior			R.Shank.Lateral			R.Shank.Inferior			R.Heel			R.Midfoot.Superior			R.Midfoot.Lateral			R.Toe			L.Heel			L.Midfoot.Lateral			L.Midfoot.Superior			L.Toe			L.Elbow			L.Wrist			R.Elbow			R.Wrist			
		X1	Y1	Z1	X2	Y2	Z2	X3	Y3	Z3	X4	Y4	Z4	X5	Y5	Z5	X6	Y6	Z6	X7	Y7	Z7	X8	Y8	Z8	X9	Y9	Z9	X10	Y10	Z10	X11	Y11	Z11	X12	Y12	Z12	X13	Y13	Z13	X14	Y14	Z14	X15	Y15	Z15	X16	Y16	Z16	X17	Y17	Z17	X18	Y18	Z18	X19	Y19	Z19	X20	Y20	Z20	X21	Y21	Z21	X22	Y22	Z22	X23	Y23	Z23	X24	Y24	Z24	X25	Y25	Z25	X26	Y26	Z26	X27	Y27	Z27	X28	Y28	Z28	X29	Y29	Z29	X30	Y30	Z30	X31	Y31	Z31	X32	Y32	Z32	X33	Y33	Z33	

71	26.040000000000	696.102255238183	1006.678868576193	440.946533982548	892.192898200874	1433.688007226784	267.473059717528	993.814513529786	1359.951794178300	426.072762696746	913.496429909716	1436.887159585309	600.024424906162	876.791109574598	1490.464416511133	436.174265173084	920.930458532843	936.996887844634	563.992089861679	913.565134717042	959.318308501375	289.516222878577	985.062868457243	754.700261028239	539.071324416876	928.101222665963	635.808358753018	608.045785360730	1016.506699023314	597.175656339164	529.444079920492	1039.525336986482	512.137581004894	543.637345302121	930.784070381918	732.688805416511	315.350511724366	825.791314964105	632.433375231488	247.645761182356	892.191521086574	541.515522792405	310.746332994770	880.352564448114	472.546867420382	317.615951489517	844.804496021241	405.911619947767	306.126781290587	741.308163893682	306.202671389660	251.158195192677	774.814618697078	186.416040249648	317.266566846595	1018.366371684916	420.957985897074	553.898798201049	955.469659563165	311.294088033557	615.955078714353	1016.534994087102	220.570343934592	562.758718029720	908.435072332807	42.327704687442	534.249629751989	1074.691426115652	109.368413239049	574.154883951846	991.600934490839	39.322588105510	609.474302828320	1196.593160814974	66.638629394268	602.034936637270	631.969282211818	38.545178944193	355.940472191524	703.552975441408	34.628047913405	273.552901871783	788.891436400322	94.660558421722	299.083926641291	915.806375817900	39.909419406731	265.041205663756	900.421461135706	1227.912004830439	-0.169466932046	1055.088844217259	1097.697704631158	-168.845150582265	816.440794261356	1116.246766115614	739.891494316250	838.246993219060	865.619837389401	805.720013337749	
72	26.052428571429	698.036054105532	1004.875679702511	444.033260515319	891.554738793378	1432.860301508983	271.071192784304	993.958047081433	1359.643128804081	429.455308315202	913.476159107746	1435.916360644496	603.669538153923	876.523018008065	1489.459893633018	439.794632330080	923.387025680846	935.496233827680	566.692319501562	915.667238589037	958.614902073790	292.396592245031	986.012785787902	751.094079479250	541.619826016008	926.568181779958	633.085727900284	609.139592968166	1014.235839915289	593.978668337335	530.076162750094	1035.296645228625	509.356307656069	543.119066787909	933.081136276614	731.611720335833	317.584849973547	827.718830430651	631.431400589365	249.831647891586	894.192549336931	540.192383449517	312.446988415824	882.375757381485	470.519911869873	318.807598121403	845.187019422006	404.387433594355	307.342039605332	739.796182934931	306.574436513054	252.244818295793	771.517262954264	185.908016864380	317.625925076504	1015.682111222627	418.068024885022	553.671285880510	954.035326806426	307.780600606791	615.728952885449	1015.362510225348	217.678245660506	561.766929051942	907.546017178786	40.684900937544	533.341638216348	1074.321517885695	106.189087033553	572.265307783198	990.754349227755	37.659701684879	608.493080630473	1196.097336104810	62.419348306466	600.062076378851	627.036143076642	39.182073699474	355.872724925901	698.640258102066	34.831956083213	273.579249777687	784.222009230618	94.641788559831	299.027724649775	910.897913262196	39.738233403595	264.904149515191	900.733492825298	1227.246621181665	3.274524990172	1055.831229892311	1097.303229528958	-165.250993275403	815.943170740488	1115.915713432840	743.874320846774	837.422597025715	865.390574379804	810.435581058000	
73	26.064857142857	699.842642448204	1003.304922768761	447.265508697914	890.876365884654	1432.228890912946	274.771615806377	994.116863680312	1359.522155122556	432.915550553626	913.509928733817	1435.118775089240	607.424089759845	876.285371784497	1488.656294339890	443.515432368714	925.705649731962	934.326775921257	569.547598426003	917.620040714273	958.053837549727	295.469872053389	987.283819174444	748.250627817879	544.116936066140	925.764056035006	631.111081637834	610.321454131173	1012.662388649019	591.547420412212	530.817679112900	1031.800661812948	507.054457011118	542.822174243895	935.656030255732	730.776116770705	320.002707038402	830.196462240124	630.459149100415	252.226994510234	897.076138875351	539.010956630555	314.276313176791	885.452071223105	468.489244927064	320.019332748389	846.383526273894	402.927344114413	308.616920805685	738.885424522167	307.308938879389	253.440416662674	768.670692036395	185.689555155770	318.001182728352	1013.304711106779	415.647480430406	553.573668744264	952.484727913406	305.091748248497	615.807447417526	1013.345924533822	215.289094807880	560.927451537141	904.771581694069	39.952999277072	532.687432060139	1072.318789720726	103.441669166310	570.611644607526	988.027901478563	36.647811486274	607.750802438747	1193.829243174161	58.215020119408	598.274278135407	622.247778662276	40.485190883626	355.788848636325	693.832442083713	35.408394990191	273.605625571985	779.837171453690	94.754662332585	298.890848694525	906.035185407712	39.496492452016	264.732029348492	900.750194972692	1226.366607707466	6.958632465912	1056.394815720218	1096.608605234541	-161.214216198836	816.218707934157	1115.383773826722	747.765676779978	837.715502979625	864.955347503684	814.893593334485	
74	26.077285714286	701.461019057803	1002.069180164793	450.607261045059	890.226426225799	1431.855914110770	278.540264457903	994.306342245336	1359.611063653196	436.432533568046	913.620392359425	1434.556568902010	611.246528967247	876.107293130401	1488.116890220540	447.303813335158	927.802565117717	933.569963026134	572.553180736017	919.329142938090	957.696374481762	298.705388040218	988.756231550723	746.260691003034	546.579376258107	925.600867115333	629.916487777230	611.677044722643	1011.707096602869	589.886760606532	531.782050138974	1029.007668642640	505.298095775144	542.893695474597	938.421575330073	730.274312878825	322.587683810444	833.209911607648	629.584057982183	254.776225820592	900.878282246260	538.062882544240	316.172261678622	889.623921749270	466.554337020808	321.174447873384	848.464792912715	401.618223041365	309.893087475719	738.660398626127	308.506451434413	254.704100790330	766.370682146038	185.878980230636	318.361322905033	1011.229015829664	413.763533642309	553.717409339762	950.886084525019	303.208537828024	616.268309774138	1010.699788998671	213.437503762531	560.336866984072	900.605260382816	39.869046056606	532.295770553456	1069.033738626849	101.248350427061	569.326388733132	983.910218078303	36.148559623227	607.275686542749	1190.211715684853	54.411948206511	596.817240932531	617.668268721830	42.672827433311	355.679364815618	689.170141690118	36.507599384596	273.620299461732	775.818230896787	95.060820281821	298.658046388883	901.222686457718	39.166455985561	264.534542851051	900.558857520137	1225.383784065667	10.842894883120	1056.781722560935	1095.624418688848	-156.777494287363	817.261378926529	1114.724366201009	751.553321896732	839.153134705967	864.391039742482	819.074005076199	
75	26.089714285714	702.849757627896	1001.232432866072	454.039340374067	889.652295582108	1431.777160965602	282.340494711086	994.529247979730	1359.914616458747	439.979048102567	913.822390070944	1434.271503155040	615.091440093122	875.998463236802	1487.878696272049	451.126224412575	929.627291462955	933.265132568059	575.693291169108	920.717687656083	957.588511882180	302.059034084550	990.282398722669	745.114322718933	549.042585363860	925.896498414706	629.443264233277	613.278498914967	1011.204596166609	588.910273264030	533.065720122371	1026.782502048647	504.077539880119	543.442968790959	941.300875177245	730.186235776613	325.307791475701	836.748688837299	628.867990932458	257.408185351126	905.619776165965	537.433669904619	318.063436580083	894.905485871908	464.816277317549	322.196932650192	851.490257796489	400.539956155855	311.112271375558	739.207643548892	310.249228079172	255.986450348056	764.704685470020	186.583269760166	318.675355170183	1009.366012001634	412.414136349520	554.187077897448	949.220866670137	302.038289776483	617.131222132931	1007.595892859084	212.105823747173	560.058207191912	895.522227249081	40.182440355337	532.146549623197	1064.819016541765	99.656740909817	568.477910848832	978.871679871706	36.013212108807	607.060821329622	1185.654042303368	51.275859006439	595.767969246872	613.365806557123	45.948254821965	355.530785295922	684.699082933706	38.284707111436	273.608573616174	772.238855010944	95.629163759056	298.324771442716	896.463746680494	38.733161539200	264.329386160917	900.250024177615	1224.406723232552	14.883506429402	1056.996977668216	1094.370531499287	-151.998651153732	819.041179999519	1114.010100622494	755.234101527520	841.760679168655	863.774865638766	822.957676846855	
